<svg xmlns="http://www.w3.org/2000/svg" viewBox="0 0 460 90">
  <defs>
    <filter id="dropShadow" x="-20%" y="-20%" width="140%" height="140%">
      <feDropShadow dx="0" dy="2" stdDeviation="2.5" flood-color="#000000" flood-opacity="0.15"/>
    </filter>
  </defs>
  
  <rect width="460" height="90" fill="#ffffff"/>
  
  <g transform="translate(12, 5)" filter="url(#dropShadow)">
    <!-- Icon - vertically centered -->
    <g transform="translate(0, 2) scale(0.55)">
      <path d="M0 0 L100 0 L100 135 L0 135 Z" 
            fill="#ffffff" stroke="#1a1a1a" stroke-width="3"/>
      
      <text x="10" y="52" font-family="ui-monospace, 'SF Mono', 'Consolas', monospace" font-size="25" font-weight="bold" fill="#1a1a1a">.docx</text>
      
      <line x1="12" y1="78" x2="70" y2="78" stroke="#1a1a1a" stroke-width="2" opacity="0.25"/>
      <line x1="12" y1="93" x2="60" y2="93" stroke="#1a1a1a" stroke-width="2" opacity="0.25"/>
      <line x1="12" y1="108" x2="68" y2="108" stroke="#1a1a1a" stroke-width="2" opacity="0.25"/>
      
      <g fill="#1a1a1a">
        <rect x="104" y="4" width="7" height="7"/>
        <rect x="104" y="15" width="7" height="7"/>
        <rect x="104" y="26" width="7" height="7"/>
        <rect x="104" y="37" width="7" height="7"/>
        <rect x="104" y="48" width="7" height="7"/>
        <rect x="104" y="59" width="7" height="7"/>
        <rect x="104" y="70" width="7" height="7"/>
        <rect x="104" y="81" width="7" height="7"/>
        <rect x="104" y="92" width="7" height="7"/>
        <rect x="104" y="103" width="7" height="7"/>
        <rect x="104" y="114" width="7" height="7"/>
        <rect x="104" y="125" width="7" height="7"/>
        
        <rect x="114" y="4" width="7" height="7" opacity="0.8"/>
        <rect x="114" y="26" width="7" height="7" opacity="0.75"/>
        <rect x="114" y="48" width="7" height="7" opacity="0.8"/>
        <rect x="114" y="70" width="7" height="7" opacity="0.75"/>
        <rect x="114" y="92" width="7" height="7" opacity="0.8"/>
        <rect x="114" y="114" width="7" height="7" opacity="0.75"/>
        
        <rect x="124" y="15" width="7" height="7" opacity="0.5"/>
        <rect x="124" y="37" width="7" height="7" opacity="0.45"/>
        <rect x="124" y="59" width="7" height="7" opacity="0.5"/>
        <rect x="124" y="81" width="7" height="7" opacity="0.45"/>
        <rect x="124" y="103" width="7" height="7" opacity="0.5"/>
        
        <rect x="134" y="4" width="7" height="7" opacity="0.25"/>
        <rect x="134" y="48" width="7" height="7" opacity="0.22"/>
        <rect x="134" y="92" width="7" height="7" opacity="0.25"/>
        
        <rect x="144" y="26" width="7" height="7" opacity="0.12"/>
        <rect x="144" y="70" width="7" height="7" opacity="0.1"/>
        <rect x="144" y="114" width="7" height="7" opacity="0.12"/>
      </g>
    </g>
    
    <!-- Text block - vertically centered with icon -->
    <g transform="translate(100, 0)">
      <text x="0" y="48" font-family="ui-monospace, 'SF Mono', 'Fira Code', 'Consolas', monospace" font-size="42" font-weight="600" fill="#1a1a1a">docxodus</text>
      <text x="0" y="68" font-family="ui-monospace, 'SF Mono', 'Fira Code', 'Consolas', monospace" font-size="11" font-style="italic" font-weight="400" fill="#1a1a1a" opacity="0.55">Let my documents go!</text>
    </g>
  </g>
</svg>
